<svg width="40" height="40" viewBox="0 0 40 40" fill="none" xmlns="http://www.w3.org/2000/svg">
<rect x="0.225952" y="7.22247" width="6.70317" height="25.5552" rx="3.35159" fill="white"/>
<rect x="12.291" y="13.0303" width="5.80799" height="27.483" rx="2.904" transform="rotate(-90 12.291 13.0303)" fill="url(#paint0_linear_1_264)"/>
<rect x="12.291" y="13.0303" width="5.80799" height="20.1095" rx="2.904" transform="rotate(-90 12.291 13.0303)" fill="white"/>
<rect x="12.291" y="32.7776" width="5.80799" height="27.483" rx="2.904" transform="rotate(-90 12.291 32.7776)" fill="url(#paint1_linear_1_264)"/>
<rect x="12.291" y="32.7776" width="5.80799" height="20.1095" rx="2.904" transform="rotate(-90 12.291 32.7776)" fill="white"/>
<rect x="12.291" y="22.9039" width="5.80799" height="27.483" rx="2.904" transform="rotate(-90 12.291 22.9039)" fill="url(#paint2_linear_1_264)"/>
<rect x="12.291" y="22.9039" width="5.80799" height="14.747" rx="2.904" transform="rotate(-90 12.291 22.9039)" fill="white"/>
<defs>
<linearGradient id="paint0_linear_1_264" x1="15.195" y1="13.0303" x2="15.195" y2="40.5133" gradientUnits="userSpaceOnUse">
<stop offset="0.357066" stop-color="#115E3B"/>
<stop offset="0.575008" stop-color="#0F6E3C"/>
<stop offset="0.795244" stop-color="#0B943D"/>
<stop offset="1" stop-color="#0AA63E"/>
</linearGradient>
<linearGradient id="paint1_linear_1_264" x1="15.195" y1="32.7776" x2="15.195" y2="60.2607" gradientUnits="userSpaceOnUse">
<stop offset="0.357066" stop-color="#115E3B"/>
<stop offset="0.575008" stop-color="#0F6E3C"/>
<stop offset="0.822917" stop-color="#0B943D"/>
<stop offset="1" stop-color="#0AA63E"/>
</linearGradient>
<linearGradient id="paint2_linear_1_264" x1="15.195" y1="22.9039" x2="15.195" y2="50.3869" gradientUnits="userSpaceOnUse">
<stop offset="0.357066" stop-color="#115E3B"/>
<stop offset="0.575008" stop-color="#0F6E3C"/>
<stop offset="0.822917" stop-color="#0B943D"/>
<stop offset="1" stop-color="#0AA63E"/>
</linearGradient>
</defs>
</svg>
