<svg width="181" height="40" viewBox="0 0 181 40" fill="none" xmlns="http://www.w3.org/2000/svg">
<rect y="5.07532" width="7.82961" height="29.8496" rx="3.9148" fill="white"/>
<rect x="14.0932" y="11.8591" width="6.78399" height="32.1014" rx="3.392" transform="rotate(-90 14.0932 11.8591)" fill="url(#paint0_linear_1_312)"/>
<rect x="14.0932" y="23.3918" width="6.78399" height="32.1014" rx="3.392" transform="rotate(-90 14.0932 23.3918)" fill="url(#paint1_linear_1_312)"/>
<rect x="14.0932" y="34.9248" width="6.78399" height="32.1014" rx="3.392" transform="rotate(-90 14.0932 34.9248)" fill="url(#paint2_linear_1_312)"/>
<rect x="14.0932" y="34.9248" width="6.78399" height="23.4888" rx="3.392" transform="rotate(-90 14.0932 34.9248)" fill="white"/>
<rect x="14.0932" y="23.3918" width="6.78399" height="17.2251" rx="3.392" transform="rotate(-90 14.0932 23.3918)" fill="white"/>
<rect x="14.0932" y="11.8591" width="6.78399" height="23.4888" rx="3.392" transform="rotate(-90 14.0932 11.8591)" fill="white"/>
<path d="M60.7367 13.2624H62.6267V27.9624H60.7367V13.2624ZM67.3616 13.2624H68.0756L76.7066 23.7204V13.2624H78.5966V27.9624H77.8826L69.2516 17.4624V27.9624H67.3616V13.2624ZM82.1625 13.2624H84.0525L89.0295 24.7914L94.0065 13.2624H95.8965L89.4285 27.9624H88.6305L82.1625 13.2624ZM99.4579 13.2624H107.858V14.8584H101.348V19.6044H107.627V21.2004H101.348V26.3664H107.942V27.9624H99.4579V13.2624ZM115.934 28.2564C114.282 28.2564 112.882 27.6964 111.734 26.5764L111.86 24.3924H112.07C112.616 25.0784 113.19 25.6314 113.792 26.0514C114.408 26.4574 115.122 26.6604 115.934 26.6604C116.802 26.6604 117.481 26.4294 117.971 25.9674C118.475 25.4914 118.727 24.8684 118.727 24.0984C118.727 23.3704 118.461 22.7614 117.929 22.2714C117.411 21.7674 116.634 21.2914 115.598 20.8434C114.478 20.3674 113.582 19.7654 112.91 19.0374C112.252 18.3094 111.923 17.4834 111.923 16.5594C111.923 15.8454 112.112 15.2154 112.49 14.6694C112.868 14.1234 113.372 13.7034 114.002 13.4094C114.646 13.1154 115.346 12.9684 116.102 12.9684C116.802 12.9684 117.446 13.0804 118.034 13.3044C118.622 13.5144 119.119 13.7944 119.525 14.1444L119.609 16.1604H119.336C118.86 15.6004 118.342 15.1804 117.782 14.9004C117.222 14.6204 116.641 14.4804 116.039 14.4804C115.325 14.4804 114.737 14.6764 114.275 15.0684C113.827 15.4464 113.603 15.9224 113.603 16.4964C113.603 17.1124 113.869 17.6584 114.401 18.1344C114.947 18.6104 115.731 19.0654 116.753 19.4994C117.999 20.0314 118.951 20.6544 119.609 21.3684C120.281 22.0684 120.617 22.8944 120.617 23.8464C120.617 24.6724 120.414 25.4214 120.008 26.0934C119.616 26.7654 119.063 27.2974 118.349 27.6894C117.635 28.0674 116.83 28.2564 115.934 28.2564ZM127.303 14.8584H123.439V13.2624H133.057V14.8584H129.193V27.9624H127.303V14.8584ZM136.986 13.2624H146.331V15.7824H139.968V19.1424H146.1V21.6624H139.968V25.4424H146.415V27.9624H136.986V13.2624ZM150.296 13.2624H154.937C156.393 13.2624 157.576 13.6404 158.486 14.3964C159.41 15.1524 159.872 16.1884 159.872 17.5044C159.872 18.4564 159.627 19.2684 159.137 19.9404C158.647 20.6124 157.968 21.1024 157.1 21.4104L161.027 27.9624H157.73L153.992 21.7464H153.278V27.9624H150.296V13.2624ZM154.685 19.1844C156.155 19.1844 156.89 18.6244 156.89 17.5044C156.89 16.3844 156.155 15.8244 154.685 15.8244H153.278V19.1844H154.685ZM170.177 13.2624H171.059L177.569 27.9624H174.671L173.579 25.4424H167.657L166.565 27.9624H163.667L170.177 13.2624ZM172.529 22.9224L170.618 18.4704L168.707 22.9224H172.529Z" fill="white"/>
<defs>
<linearGradient id="paint0_linear_1_312" x1="17.4852" y1="11.8591" x2="17.4852" y2="43.9605" gradientUnits="userSpaceOnUse">
<stop offset="0.357066" stop-color="#115E3B"/>
<stop offset="0.575008" stop-color="#0F6E3C"/>
<stop offset="0.795244" stop-color="#0B943D"/>
<stop offset="1" stop-color="#0AA63E"/>
</linearGradient>
<linearGradient id="paint1_linear_1_312" x1="17.4852" y1="23.3918" x2="17.4852" y2="55.4932" gradientUnits="userSpaceOnUse">
<stop offset="0.357066" stop-color="#115E3B"/>
<stop offset="0.575008" stop-color="#0F6E3C"/>
<stop offset="0.822917" stop-color="#0B943D"/>
<stop offset="1" stop-color="#0AA63E"/>
</linearGradient>
<linearGradient id="paint2_linear_1_312" x1="17.4852" y1="34.9248" x2="17.4852" y2="67.0262" gradientUnits="userSpaceOnUse">
<stop offset="0.357066" stop-color="#115E3B"/>
<stop offset="0.575008" stop-color="#0F6E3C"/>
<stop offset="0.822917" stop-color="#0B943D"/>
<stop offset="1" stop-color="#0AA63E"/>
</linearGradient>
</defs>
</svg>
