<svg width="40" height="40" viewBox="0 0 40 40" fill="none" xmlns="http://www.w3.org/2000/svg">
<path d="M34.3671 13.1224C34.1964 12.5184 33.8621 11.9677 33.3977 11.5253C32.9333 11.083 32.355 10.7646 31.7208 10.602C29.3852 10 20 10 20 10C20 10 10.6148 10 8.2792 10.602C7.64499 10.7646 7.06674 11.083 6.60233 11.5253C6.13791 11.9677 5.80362 12.5184 5.63291 13.1224C5.19681 15.3911 4.98518 17.6937 5.00081 20C4.98518 22.3063 5.19681 24.6089 5.63291 26.8776C5.80362 27.4816 6.13791 28.0323 6.60233 28.4747C7.06674 28.917 7.64499 29.2354 8.2792 29.398C10.6148 30 20 30 20 30C20 30 29.3852 30 31.7208 29.398C32.355 29.2354 32.9333 28.917 33.3977 28.4747C33.8621 28.0323 34.1964 27.4816 34.3671 26.8776C34.8032 24.6089 35.0148 22.3063 34.9992 20C35.0148 17.6937 34.8032 15.3911 34.3671 13.1224ZM18.4816 24.9001C17.8151 25.2664 17 24.7842 17 24.0237V15.9763C17 15.2158 17.8151 14.7336 18.4816 15.0999L25.804 19.1236C26.4953 19.5034 26.4953 20.4966 25.804 20.8764L18.4816 24.9001Z" fill="#DBDBDB"/>
</svg>
